<?xml version="1.0" encoding="UTF-8" standalone="no"?>
<!-- Generator: Adobe Illustrator 24.0.0, SVG Export Plug-In . SVG Version: 6.00 Build 0)  -->

<svg
   version="1.1"
   id="Capa_1"
   x="0px"
   y="0px"
   viewBox="0 0 23.4 9.6402664"
   xml:space="preserve"
   sodipodi:docname="ecb8a6de594495c0146a803fe5c4079a.svg"
   width="23.4"
   height="9.6402664"
   xmlns:inkscape="http://www.inkscape.org/namespaces/inkscape"
   xmlns:sodipodi="http://sodipodi.sourceforge.net/DTD/sodipodi-0.dtd"
   xmlns="http://www.w3.org/2000/svg"
   xmlns:svg="http://www.w3.org/2000/svg"><defs
   id="defs15" /><sodipodi:namedview
   id="namedview13"
   pagecolor="#ffffff"
   bordercolor="#666666"
   borderopacity="1.0"
   inkscape:pageshadow="2"
   inkscape:pageopacity="0.0"
   inkscape:pagecheckerboard="0" />
<style
   type="text/css"
   id="style2">
	.st0{fill:#0A0A0D;}
</style>
<g
   id="g10"
   transform="translate(-0.3,-7.9733459)">
	<path
   class="st0"
   d="m 3.4,12.2 c 0,0 3.9,-1 7.2,-2.9 3.6,-2.2 6.2,-1 6.2,-1 0,0 -1.1,0.3 -2.6,1.1 -1.5,0.8 -3.3,1.8 -4.4,2.4 C 8,12.6 6.3,13 3.4,12.2 Z"
   id="path4" />
	<path
   class="st0"
   d="m 8.4,17.1 c 0,0 1.7,-0.1 3,-0.6 1.8,-0.7 3.4,-1.6 4.8,-2.5 3,-1.9 5.9,-0.9 5.9,-0.9 0,0 -1.3,0.2 -2.9,1.2 -1.4,0.9 -3.1,1.9 -4.2,2.5 -1.8,0.8 -4.1,1.2 -6.6,0.3 z"
   id="path6" />
	<path
   class="st0"
   d="m 0.3,13.9 c 0,0 4.1,1.3 8.7,-0.3 4.9,-1.7 6.4,-3.6 8.7,-4.6 3.3,-1.3 6,0.3 6,0.3 0,0 -3,-0.2 -7.1,2.4 -3.5,2.3 -6.3,4 -10,4.2 -4.2,0.4 -6.3,-2 -6.3,-2 z"
   id="path8" />
</g>
</svg>
